<svg xmlns="http://www.w3.org/2000/svg" viewBox="0 0 512 512">
<defs>
<radialGradient id="bg32" cx="50%" cy="35%"><stop offset="0" stop-color="#22c55e" stop-opacity=".38"/><stop offset="1" stop-color="#06150b"/></radialGradient>
<linearGradient id="metal32" x1="0" x2="1" y1="0" y2="1"><stop offset="0" stop-color="#f6f7fb"/><stop offset=".5" stop-color="#aeb7c7"/><stop offset="1" stop-color="#576173"/></linearGradient>
<filter id="glow32" x="-30%" y="-30%" width="160%" height="160%"><feGaussianBlur stdDeviation="8" result="b"/><feMerge><feMergeNode in="b"/><feMergeNode in="SourceGraphic"/></feMerge></filter>
</defs>
<rect width="512" height="512" rx="88" fill="url(#bg32)"/>
<circle cx="256" cy="238" r="186" fill="none" stroke="#86efac" stroke-opacity=".22" stroke-width="3"/>
<circle cx="256" cy="238" r="158" fill="none" stroke="#22c55e" stroke-opacity=".16" stroke-width="2"/>
<circle cx="262" cy="173" r="3" fill="#86efac" opacity=".7"/>
<circle cx="56" cy="482" r="4" fill="#86efac" opacity=".7"/>
<circle cx="36" cy="125" r="4" fill="#86efac" opacity=".7"/>
<circle cx="222" cy="238" r="3" fill="#86efac" opacity=".7"/>
<circle cx="308" cy="216" r="4" fill="#86efac" opacity=".7"/>
<circle cx="293" cy="41" r="2" fill="#86efac" opacity=".7"/>
<circle cx="320" cy="385" r="4" fill="#86efac" opacity=".7"/>
<circle cx="156" cy="349" r="4" fill="#86efac" opacity=".7"/>
<circle cx="64" cy="211" r="2" fill="#86efac" opacity=".7"/>
<circle cx="248" cy="456" r="2" fill="#86efac" opacity=".7"/>
<circle cx="144" cy="231" r="3" fill="#86efac" opacity=".7"/>
<circle cx="98" cy="48" r="4" fill="#86efac" opacity=".7"/>
<g transform="rotate(6 256 250)">
<path d="M128 310 Q132 128 256 104 Q380 128 384 310 Q330 390 256 392 Q182 390 128 310Z" fill="#111827" stroke="#22c55e" stroke-width="9"/>
<path d="M150 210 Q256 155 362 210 L348 286 Q256 323 164 286Z" fill="#22c55e" opacity=".35"/>
<rect x="160" y="208" width="192" height="62" rx="28" fill="#06150b" stroke="#86efac" stroke-width="6"/>
<path d="M182 240 Q256 234 330 240" stroke="#86efac" stroke-width="12" stroke-linecap="round"/>
<circle cx="202" cy="240" r="9" fill="#86efac"/><circle cx="310" cy="240" r="9" fill="#86efac"/>
</g>
<path d="M170 180 L210 150" stroke="#14b8a6" stroke-width="10" stroke-linecap="round"/>
<g transform="translate(0 420)">
<rect x="118" y="0" width="276" height="58" rx="22" fill="#080b14" stroke="#86efac" stroke-width="4"/>
<text x="256" y="38" text-anchor="middle" font-family="Arial, sans-serif" font-size="26" font-weight="800" fill="#fff" letter-spacing="2">DROP 33</text>
</g>
</svg>