<svg xmlns="http://www.w3.org/2000/svg" viewBox="0 0 512 512">
<defs>
<radialGradient id="bg93" cx="50%" cy="35%"><stop offset="0" stop-color="#f97316" stop-opacity=".38"/><stop offset="1" stop-color="#1a0b03"/></radialGradient>
<linearGradient id="metal93" x1="0" x2="1" y1="0" y2="1"><stop offset="0" stop-color="#f6f7fb"/><stop offset=".5" stop-color="#aeb7c7"/><stop offset="1" stop-color="#576173"/></linearGradient>
<filter id="glow93" x="-30%" y="-30%" width="160%" height="160%"><feGaussianBlur stdDeviation="8" result="b"/><feMerge><feMergeNode in="b"/><feMergeNode in="SourceGraphic"/></feMerge></filter>
</defs>
<rect width="512" height="512" rx="88" fill="url(#bg93)"/>
<circle cx="256" cy="238" r="186" fill="none" stroke="#fdba74" stroke-opacity=".22" stroke-width="3"/>
<circle cx="256" cy="238" r="158" fill="none" stroke="#f97316" stroke-opacity=".16" stroke-width="2"/>
<circle cx="375" cy="29" r="6" fill="#fdba74" opacity=".7"/>
<circle cx="452" cy="329" r="3" fill="#fdba74" opacity=".7"/>
<circle cx="334" cy="72" r="3" fill="#fdba74" opacity=".7"/>
<circle cx="280" cy="473" r="4" fill="#fdba74" opacity=".7"/>
<circle cx="107" cy="418" r="3" fill="#fdba74" opacity=".7"/>
<circle cx="364" cy="158" r="3" fill="#fdba74" opacity=".7"/>
<circle cx="201" cy="149" r="4" fill="#fdba74" opacity=".7"/>
<circle cx="459" cy="304" r="4" fill="#fdba74" opacity=".7"/>
<circle cx="410" cy="300" r="4" fill="#fdba74" opacity=".7"/>
<circle cx="48" cy="247" r="2" fill="#fdba74" opacity=".7"/>
<circle cx="478" cy="404" r="3" fill="#fdba74" opacity=".7"/>
<circle cx="365" cy="197" r="3" fill="#fdba74" opacity=".7"/>
<g transform="rotate(3 256 250)">
<circle cx="256" cy="250" r="150" fill="#f97316" opacity=".92" stroke="#fdba74" stroke-width="8"/>
<ellipse cx="200" cy="238" rx="32" ry="38" fill="#fff"/>
<ellipse cx="312" cy="238" rx="32" ry="38" fill="#fff"/>
<circle cx="209" cy="242" r="14" fill="#111827"/>
<circle cx="316" cy="242" r="14" fill="#111827"/>
<path d="M176 310 Q256 370 336 310" fill="none" stroke="#111827" stroke-width="13" stroke-linecap="round"/>
<circle cx="178" cy="295" r="10" fill="#fff" opacity=".35"/><circle cx="334" cy="295" r="10" fill="#fff" opacity=".35"/>
</g>
<path d="M102 392 Q256 448 410 392" stroke="#fdba74" stroke-opacity=".5" stroke-width="7" fill="none"/>
<g transform="translate(0 420)">
<rect x="118" y="0" width="276" height="58" rx="22" fill="#080b14" stroke="#fdba74" stroke-width="4"/>
<text x="256" y="38" text-anchor="middle" font-family="Arial, sans-serif" font-size="26" font-weight="800" fill="#fff" letter-spacing="2">SKILL</text>
</g>
</svg>