<svg xmlns="http://www.w3.org/2000/svg" viewBox="0 0 512 512">
<defs>
<radialGradient id="bg46" cx="50%" cy="35%"><stop offset="0" stop-color="#ec4899" stop-opacity=".38"/><stop offset="1" stop-color="#1a0614"/></radialGradient>
<linearGradient id="metal46" x1="0" x2="1" y1="0" y2="1"><stop offset="0" stop-color="#f6f7fb"/><stop offset=".5" stop-color="#aeb7c7"/><stop offset="1" stop-color="#576173"/></linearGradient>
<filter id="glow46" x="-30%" y="-30%" width="160%" height="160%"><feGaussianBlur stdDeviation="8" result="b"/><feMerge><feMergeNode in="b"/><feMergeNode in="SourceGraphic"/></feMerge></filter>
</defs>
<rect width="512" height="512" rx="88" fill="url(#bg46)"/>
<circle cx="256" cy="238" r="186" fill="none" stroke="#f9a8d4" stroke-opacity=".22" stroke-width="3"/>
<circle cx="256" cy="238" r="158" fill="none" stroke="#ec4899" stroke-opacity=".16" stroke-width="2"/>
<circle cx="471" cy="124" r="3" fill="#f9a8d4" opacity=".7"/>
<circle cx="472" cy="452" r="2" fill="#f9a8d4" opacity=".7"/>
<circle cx="470" cy="443" r="3" fill="#f9a8d4" opacity=".7"/>
<circle cx="418" cy="66" r="4" fill="#f9a8d4" opacity=".7"/>
<circle cx="158" cy="127" r="6" fill="#f9a8d4" opacity=".7"/>
<circle cx="300" cy="194" r="3" fill="#f9a8d4" opacity=".7"/>
<circle cx="239" cy="461" r="6" fill="#f9a8d4" opacity=".7"/>
<circle cx="127" cy="141" r="3" fill="#f9a8d4" opacity=".7"/>
<circle cx="409" cy="287" r="2" fill="#f9a8d4" opacity=".7"/>
<circle cx="241" cy="35" r="2" fill="#f9a8d4" opacity=".7"/>
<circle cx="263" cy="191" r="3" fill="#f9a8d4" opacity=".7"/>
<circle cx="358" cy="112" r="4" fill="#f9a8d4" opacity=".7"/>
<g transform="rotate(11 256 250)">
<path d="M133 270 Q132 125 256 92 Q380 125 379 270 L350 350 Q256 402 162 350 Z" fill="#182033" stroke="#f9a8d4" stroke-width="8"/>
<path d="M150 220 Q256 157 362 220 L350 140 Q256 84 162 140 Z" fill="#ec4899" opacity=".55"/>
<rect x="148" y="218" width="216" height="86" rx="28" fill="#0d1320" stroke="#f9a8d4" stroke-width="7"/>
<rect x="175" y="241" width="162" height="22" rx="11" fill="#f9a8d4" opacity=".85" filter="url(#glow46)"/>
<path d="M165 306 L185 354 M347 306 L327 354" stroke="#f9a8d4" stroke-width="10" stroke-linecap="round"/>
</g>
<path d="M170 180 L210 150" stroke="#7c3aed" stroke-width="10" stroke-linecap="round"/>
<g transform="translate(0 420)">
<rect x="118" y="0" width="276" height="58" rx="22" fill="#080b14" stroke="#f9a8d4" stroke-width="4"/>
<text x="256" y="38" text-anchor="middle" font-family="Arial, sans-serif" font-size="26" font-weight="800" fill="#fff" letter-spacing="2">DROP 47</text>
</g>
</svg>