<svg xmlns="http://www.w3.org/2000/svg" viewBox="0 0 512 512">
<defs>
<radialGradient id="bg70" cx="50%" cy="35%"><stop offset="0" stop-color="#7c3aed" stop-opacity=".38"/><stop offset="1" stop-color="#0b0620"/></radialGradient>
<linearGradient id="metal70" x1="0" x2="1" y1="0" y2="1"><stop offset="0" stop-color="#f6f7fb"/><stop offset=".5" stop-color="#aeb7c7"/><stop offset="1" stop-color="#576173"/></linearGradient>
<filter id="glow70" x="-30%" y="-30%" width="160%" height="160%"><feGaussianBlur stdDeviation="8" result="b"/><feMerge><feMergeNode in="b"/><feMergeNode in="SourceGraphic"/></feMerge></filter>
</defs>
<rect width="512" height="512" rx="88" fill="url(#bg70)"/>
<circle cx="256" cy="238" r="186" fill="none" stroke="#a78bfa" stroke-opacity=".22" stroke-width="3"/>
<circle cx="256" cy="238" r="158" fill="none" stroke="#7c3aed" stroke-opacity=".16" stroke-width="2"/>
<circle cx="129" cy="245" r="2" fill="#a78bfa" opacity=".7"/>
<circle cx="141" cy="287" r="6" fill="#a78bfa" opacity=".7"/>
<circle cx="161" cy="319" r="6" fill="#a78bfa" opacity=".7"/>
<circle cx="101" cy="76" r="6" fill="#a78bfa" opacity=".7"/>
<circle cx="290" cy="307" r="3" fill="#a78bfa" opacity=".7"/>
<circle cx="448" cy="63" r="3" fill="#a78bfa" opacity=".7"/>
<circle cx="415" cy="340" r="2" fill="#a78bfa" opacity=".7"/>
<circle cx="473" cy="410" r="6" fill="#a78bfa" opacity=".7"/>
<circle cx="77" cy="311" r="6" fill="#a78bfa" opacity=".7"/>
<circle cx="393" cy="446" r="2" fill="#a78bfa" opacity=".7"/>
<circle cx="363" cy="349" r="4" fill="#a78bfa" opacity=".7"/>
<circle cx="47" cy="368" r="4" fill="#a78bfa" opacity=".7"/>
<g transform="rotate(4 256 250)">
<path d="M128 310 Q132 128 256 104 Q380 128 384 310 Q330 390 256 392 Q182 390 128 310Z" fill="#111827" stroke="#7c3aed" stroke-width="9"/>
<path d="M150 210 Q256 155 362 210 L348 286 Q256 323 164 286Z" fill="#7c3aed" opacity=".35"/>
<rect x="160" y="208" width="192" height="62" rx="28" fill="#0b0620" stroke="#a78bfa" stroke-width="6"/>
<path d="M182 240 Q256 216 330 240" stroke="#a78bfa" stroke-width="12" stroke-linecap="round"/>
<circle cx="202" cy="240" r="9" fill="#a78bfa"/><circle cx="310" cy="240" r="9" fill="#a78bfa"/>
</g>
<path d="M170 180 L210 150" stroke="#22c55e" stroke-width="10" stroke-linecap="round"/>
<g transform="translate(0 420)">
<rect x="118" y="0" width="276" height="58" rx="22" fill="#080b14" stroke="#a78bfa" stroke-width="4"/>
<text x="256" y="38" text-anchor="middle" font-family="Arial, sans-serif" font-size="26" font-weight="800" fill="#fff" letter-spacing="2">OP</text>
</g>
</svg>