<svg xmlns="http://www.w3.org/2000/svg" viewBox="0 0 512 512">
<defs>
<radialGradient id="bg74" cx="50%" cy="35%"><stop offset="0" stop-color="#ef4444" stop-opacity=".38"/><stop offset="1" stop-color="#190507"/></radialGradient>
<linearGradient id="metal74" x1="0" x2="1" y1="0" y2="1"><stop offset="0" stop-color="#f6f7fb"/><stop offset=".5" stop-color="#aeb7c7"/><stop offset="1" stop-color="#576173"/></linearGradient>
<filter id="glow74" x="-30%" y="-30%" width="160%" height="160%"><feGaussianBlur stdDeviation="8" result="b"/><feMerge><feMergeNode in="b"/><feMergeNode in="SourceGraphic"/></feMerge></filter>
</defs>
<rect width="512" height="512" rx="88" fill="url(#bg74)"/>
<circle cx="256" cy="238" r="186" fill="none" stroke="#fca5a5" stroke-opacity=".22" stroke-width="3"/>
<circle cx="256" cy="238" r="158" fill="none" stroke="#ef4444" stroke-opacity=".16" stroke-width="2"/>
<circle cx="271" cy="351" r="2" fill="#fca5a5" opacity=".7"/>
<circle cx="267" cy="272" r="3" fill="#fca5a5" opacity=".7"/>
<circle cx="261" cy="224" r="3" fill="#fca5a5" opacity=".7"/>
<circle cx="235" cy="408" r="6" fill="#fca5a5" opacity=".7"/>
<circle cx="470" cy="204" r="6" fill="#fca5a5" opacity=".7"/>
<circle cx="189" cy="78" r="3" fill="#fca5a5" opacity=".7"/>
<circle cx="255" cy="450" r="2" fill="#fca5a5" opacity=".7"/>
<circle cx="126" cy="344" r="4" fill="#fca5a5" opacity=".7"/>
<circle cx="265" cy="454" r="3" fill="#fca5a5" opacity=".7"/>
<circle cx="90" cy="260" r="3" fill="#fca5a5" opacity=".7"/>
<circle cx="292" cy="258" r="4" fill="#fca5a5" opacity=".7"/>
<circle cx="282" cy="83" r="3" fill="#fca5a5" opacity=".7"/>
<g transform="rotate(6 256 250)">
<circle cx="256" cy="250" r="150" fill="#ef4444" opacity=".92" stroke="#fca5a5" stroke-width="8"/>
<ellipse cx="200" cy="238" rx="32" ry="38" fill="#fff"/>
<ellipse cx="312" cy="238" rx="32" ry="38" fill="#fff"/>
<circle cx="200" cy="242" r="14" fill="#111827"/>
<circle cx="312" cy="242" r="14" fill="#111827"/>
<path d="M176 310 Q256 370 336 310" fill="none" stroke="#111827" stroke-width="13" stroke-linecap="round"/>
<circle cx="178" cy="295" r="10" fill="#fff" opacity=".35"/><circle cx="334" cy="295" r="10" fill="#fff" opacity=".35"/>
</g>
<path d="M256 92 Q256 58 292 45" stroke="#fca5a5" stroke-width="8" fill="none" stroke-linecap="round"/>
<circle cx="294" cy="44" r="11" fill="#ef4444" filter="url(#glow74)"/>
<path d="M170 180 L210 150" stroke="#ef4444" stroke-width="10" stroke-linecap="round"/>
<path d="M102 392 Q256 448 410 392" stroke="#fca5a5" stroke-opacity=".5" stroke-width="7" fill="none"/>
<g transform="translate(0 420)">
<rect x="118" y="0" width="276" height="58" rx="22" fill="#080b14" stroke="#fca5a5" stroke-width="4"/>
<text x="256" y="38" text-anchor="middle" font-family="Arial, sans-serif" font-size="26" font-weight="800" fill="#fff" letter-spacing="2">RUSH</text>
</g>
</svg>