<svg xmlns="http://www.w3.org/2000/svg" viewBox="0 0 512 512">
<defs>
<radialGradient id="bg8" cx="50%" cy="35%"><stop offset="0" stop-color="#14b8a6" stop-opacity=".38"/><stop offset="1" stop-color="#031512"/></radialGradient>
<linearGradient id="metal8" x1="0" x2="1" y1="0" y2="1"><stop offset="0" stop-color="#f6f7fb"/><stop offset=".5" stop-color="#aeb7c7"/><stop offset="1" stop-color="#576173"/></linearGradient>
<filter id="glow8" x="-30%" y="-30%" width="160%" height="160%"><feGaussianBlur stdDeviation="8" result="b"/><feMerge><feMergeNode in="b"/><feMergeNode in="SourceGraphic"/></feMerge></filter>
</defs>
<rect width="512" height="512" rx="88" fill="url(#bg8)"/>
<circle cx="256" cy="238" r="186" fill="none" stroke="#5eead4" stroke-opacity=".22" stroke-width="3"/>
<circle cx="256" cy="238" r="158" fill="none" stroke="#14b8a6" stroke-opacity=".16" stroke-width="2"/>
<circle cx="366" cy="392" r="3" fill="#5eead4" opacity=".7"/>
<circle cx="475" cy="373" r="2" fill="#5eead4" opacity=".7"/>
<circle cx="331" cy="204" r="2" fill="#5eead4" opacity=".7"/>
<circle cx="304" cy="432" r="4" fill="#5eead4" opacity=".7"/>
<circle cx="160" cy="141" r="6" fill="#5eead4" opacity=".7"/>
<circle cx="103" cy="302" r="2" fill="#5eead4" opacity=".7"/>
<circle cx="139" cy="101" r="2" fill="#5eead4" opacity=".7"/>
<circle cx="145" cy="220" r="4" fill="#5eead4" opacity=".7"/>
<circle cx="83" cy="471" r="2" fill="#5eead4" opacity=".7"/>
<circle cx="103" cy="429" r="3" fill="#5eead4" opacity=".7"/>
<circle cx="218" cy="155" r="3" fill="#5eead4" opacity=".7"/>
<circle cx="452" cy="80" r="6" fill="#5eead4" opacity=".7"/>
<g transform="rotate(15 256 250)">
<path d="M133 270 Q132 125 256 92 Q380 125 379 270 L350 350 Q256 402 162 350 Z" fill="#182033" stroke="#5eead4" stroke-width="8"/>
<path d="M150 220 Q256 157 362 220 L350 140 Q256 84 162 140 Z" fill="#14b8a6" opacity=".55"/>
<rect x="148" y="218" width="216" height="86" rx="28" fill="#0d1320" stroke="#5eead4" stroke-width="7"/>
<rect x="175" y="241" width="162" height="22" rx="11" fill="#5eead4" opacity=".85" filter="url(#glow8)"/>
<path d="M165 306 L185 354 M347 306 L327 354" stroke="#5eead4" stroke-width="10" stroke-linecap="round"/>
</g>
<path d="M170 180 L210 150" stroke="#ec4899" stroke-width="10" stroke-linecap="round"/>
<path d="M102 392 Q256 448 410 392" stroke="#5eead4" stroke-opacity=".5" stroke-width="7" fill="none"/>
<g transform="translate(0 420)">
<rect x="118" y="0" width="276" height="58" rx="22" fill="#080b14" stroke="#5eead4" stroke-width="4"/>
<text x="256" y="38" text-anchor="middle" font-family="Arial, sans-serif" font-size="26" font-weight="800" fill="#fff" letter-spacing="2">DROP 09</text>
</g>
</svg>