<svg xmlns="http://www.w3.org/2000/svg" viewBox="0 0 512 512">
<defs>
<radialGradient id="bg11" cx="50%" cy="35%"><stop offset="0" stop-color="#06b6d4" stop-opacity=".38"/><stop offset="1" stop-color="#04151b"/></radialGradient>
<linearGradient id="metal11" x1="0" x2="1" y1="0" y2="1"><stop offset="0" stop-color="#f6f7fb"/><stop offset=".5" stop-color="#aeb7c7"/><stop offset="1" stop-color="#576173"/></linearGradient>
<filter id="glow11" x="-30%" y="-30%" width="160%" height="160%"><feGaussianBlur stdDeviation="8" result="b"/><feMerge><feMergeNode in="b"/><feMergeNode in="SourceGraphic"/></feMerge></filter>
</defs>
<rect width="512" height="512" rx="88" fill="url(#bg11)"/>
<circle cx="256" cy="238" r="186" fill="none" stroke="#67e8f9" stroke-opacity=".22" stroke-width="3"/>
<circle cx="256" cy="238" r="158" fill="none" stroke="#06b6d4" stroke-opacity=".16" stroke-width="2"/>
<circle cx="254" cy="232" r="6" fill="#67e8f9" opacity=".7"/>
<circle cx="286" cy="160" r="3" fill="#67e8f9" opacity=".7"/>
<circle cx="88" cy="266" r="4" fill="#67e8f9" opacity=".7"/>
<circle cx="446" cy="435" r="6" fill="#67e8f9" opacity=".7"/>
<circle cx="344" cy="85" r="4" fill="#67e8f9" opacity=".7"/>
<circle cx="136" cy="69" r="6" fill="#67e8f9" opacity=".7"/>
<circle cx="449" cy="319" r="4" fill="#67e8f9" opacity=".7"/>
<circle cx="272" cy="37" r="6" fill="#67e8f9" opacity=".7"/>
<circle cx="457" cy="459" r="3" fill="#67e8f9" opacity=".7"/>
<circle cx="302" cy="31" r="4" fill="#67e8f9" opacity=".7"/>
<circle cx="299" cy="304" r="3" fill="#67e8f9" opacity=".7"/>
<circle cx="394" cy="405" r="2" fill="#67e8f9" opacity=".7"/>
<g transform="rotate(5 256 250)">
<path d="M128 310 Q132 128 256 104 Q380 128 384 310 Q330 390 256 392 Q182 390 128 310Z" fill="#111827" stroke="#06b6d4" stroke-width="9"/>
<path d="M150 210 Q256 155 362 210 L348 286 Q256 323 164 286Z" fill="#06b6d4" opacity=".35"/>
<rect x="160" y="208" width="192" height="62" rx="28" fill="#04151b" stroke="#67e8f9" stroke-width="6"/>
<path d="M182 240 Q256 222 330 240" stroke="#67e8f9" stroke-width="12" stroke-linecap="round"/>
<circle cx="202" cy="240" r="9" fill="#67e8f9"/><circle cx="310" cy="240" r="9" fill="#67e8f9"/>
</g>
<path d="M256 92 Q256 58 292 45" stroke="#67e8f9" stroke-width="8" fill="none" stroke-linecap="round"/>
<circle cx="294" cy="44" r="11" fill="#eab308" filter="url(#glow11)"/>
<path d="M102 392 Q256 448 410 392" stroke="#67e8f9" stroke-opacity=".5" stroke-width="7" fill="none"/>
<g transform="translate(0 420)">
<rect x="118" y="0" width="276" height="58" rx="22" fill="#080b14" stroke="#67e8f9" stroke-width="4"/>
<text x="256" y="38" text-anchor="middle" font-family="Arial, sans-serif" font-size="26" font-weight="800" fill="#fff" letter-spacing="2">DROP 12</text>
</g>
</svg>